<svg width="15" height="14" viewBox="0 0 15 14" fill="none" xmlns="http://www.w3.org/2000/svg">
<path d="M3.7567 4.86607H0.810268V13.7143H3.7567V4.86607ZM3.9442 2.13393C3.93527 1.26786 3.31027 0.607142 2.30134 0.607142C1.30134 0.607142 0.640625 1.26786 0.640625 2.13393C0.640625 2.98214 1.27455 3.66071 2.26563 3.66071H2.28348C3.31027 3.66071 3.95313 2.98214 3.9442 2.13393ZM14.3549 8.64286C14.3549 5.92857 12.9085 4.66071 10.971 4.66071C9.3817 4.66071 8.68527 5.54464 8.30134 6.15179H8.3192V4.86607H5.3817C5.3817 4.86607 5.41741 5.69643 5.3817 13.7143H8.3192V8.77679C8.3192 8.50893 8.34598 8.25 8.41741 8.05357C8.6317 7.52679 9.11384 6.98214 9.92634 6.98214C10.9888 6.98214 11.4174 7.79464 11.4174 8.98214V13.7143H14.3549V8.64286Z" fill="#5474FD"/>
</svg>
